<?xml version="1.0" encoding="iso-8859-1"?>
<!-- Uploaded to: SVG Repo, www.svgrepo.com, Generator: SVG Repo Mixer Tools -->
<svg fill="#000000" height="800px" width="800px" version="1.1" id="Layer_1" xmlns="http://www.w3.org/2000/svg" xmlns:xlink="http://www.w3.org/1999/xlink" 
	 viewBox="0 0 512 512" xml:space="preserve">
<g>
	<g>
		<path d="M426.731,0H85.269C38.251,0,0,38.251,0,85.269v341.461C0,473.749,38.251,512,85.269,512h341.461
			C473.749,512,512,473.749,512,426.731V85.269C512,38.251,473.749,0,426.731,0z M164.416,262.251
			c3.989,3.989,6.251,9.429,6.251,15.083v42.56c11.051,0.896,20.459,10.155,20.459,21.355c0,11.776-8.661,21.419-20.459,21.419
			C145.536,362.667,128,345.131,128,320v-33.835l-15.083-15.083c-8.341-8.341-8.341-21.824,0-30.165L128,225.835V192
			c0-25.131,17.536-42.667,42.667-42.667c11.797,0,21.333,9.557,21.333,21.333c0,11.733-9.451,21.248-21.163,21.333l-0.171,42.667
			c0,5.653-2.261,11.093-6.251,15.083L158.165,256L164.416,262.251z M298.027,175.851L255.36,346.517
			c-2.432,9.685-11.115,16.149-20.672,16.149c-1.707,0-3.456-0.192-5.184-0.64c-11.435-2.859-18.411-14.443-15.531-25.877
			l42.667-170.667c2.837-11.413,14.379-18.411,25.856-15.509C293.931,152.832,300.885,164.416,298.027,175.851z M399.083,271.083
			L384,286.165V320c0,25.131-17.536,42.667-42.667,42.667c-11.797,0-21.333-9.557-21.333-21.333
			c0-11.733,9.451-21.248,21.163-21.333l0.171-42.667c0-5.653,2.24-11.093,6.251-15.083l6.251-6.251l-6.251-6.251
			c-4.011-3.989-6.251-9.429-6.251-15.083v-42.56c-11.051-0.896-20.459-10.155-20.459-21.355c0-11.776,8.661-21.419,20.459-21.419
			C366.464,149.333,384,166.869,384,192v33.835l15.083,15.083C407.424,249.259,407.424,262.741,399.083,271.083z"/>
	</g>
</g>
</svg>